<svg xmlns="http://www.w3.org/2000/svg" width="872.1" height="250.002" viewBox="0 0 1500 430">
  <defs>
    <style>
      .cls-1, .cls-2 {
        fill-rule: evenodd;
      }

      .cls-1 {
        opacity: 0.5;
      }

      .cls-2 {
        fill: #fff;
      }
    </style>
  </defs>
  <path id="Color_Fill_2_copy" data-name="Color Fill 2 copy" class="cls-1" d="M149.956,275.014q31,0,50.075-14.623t19.076-38.181q0-14.909-7.829-25.891a42.63,42.63,0,0,0-19.527-15.514q-11.7-4.532-39.522-10.426-10.109-2.154-13.628-4.542a7.648,7.648,0,0,1-3.52-6.709q0-9.666,15.556-9.667,18.736,0,24.867,15.58l39.4-11.941Q199.688,115,152.34,115q-31.227,0-47.86,14.562T87.845,166.079A42.5,42.5,0,0,0,99.423,195.77Q111,208.4,151.771,216.223q10.674,2.157,14.82,4.942a8.873,8.873,0,0,1,4.144,7.79q0,9.552-17.94,9.553-23.054,0-28.615-18.765L80.01,227.7q13.285,47.311,69.946,47.31h0Zm172.159-2.389-32.408-103.49H256.173l-31.9,103.49h25.749l6.2-20.394h27.681l5.839,20.394h32.368Zm-52.138-73.009,8.36,30.021H261.619Zm97.614,74.6q20.665,0,33.383-9.749t12.718-25.454a28.95,28.95,0,0,0-5.22-17.26,28.418,28.418,0,0,0-13.018-10.343q-7.8-3.021-26.348-6.951-6.738-1.436-9.085-3.028a5.1,5.1,0,0,1-2.346-4.473q0-6.443,10.37-6.444,12.49,0,16.578,10.387l26.268-7.961q-10.145-25.4-41.71-25.4-20.818,0-31.907,9.708a31,31,0,0,0-11.09,24.343,28.332,28.332,0,0,0,7.719,19.8q7.717,8.418,34.9,13.635,7.116,1.437,9.88,3.294a5.915,5.915,0,0,1,2.763,5.194q0,6.368-11.96,6.368-15.369,0-19.077-12.509l-29.447,5.307q8.858,31.54,46.631,31.54h0ZM481.746,169.135V207.2H457.522v-38.06H425.8v103.49h31.718V232.367h24.224v40.258h31.718V169.135H481.746Zm139,103.49-32.407-103.49H554.806l-31.9,103.49h25.75l6.2-20.394h27.681l5.84,20.394h32.367ZM568.61,199.616l8.36,30.021H560.253Zm158.855,75.4q31,0,50.075-14.623t19.076-38.181q0-14.909-7.829-25.891a42.63,42.63,0,0,0-19.527-15.514q-11.7-4.532-39.522-10.426-10.107-2.154-13.628-4.542a7.648,7.648,0,0,1-3.52-6.709q0-9.666,15.557-9.667,18.735,0,24.867,15.58l39.4-11.941Q777.2,115,729.85,115q-31.229,0-47.861,14.562t-16.635,36.515a42.5,42.5,0,0,0,11.578,29.691q11.577,12.628,52.348,20.453,10.676,2.157,14.82,4.942a8.872,8.872,0,0,1,4.145,7.79q0,9.552-17.941,9.553-23.052,0-28.614-18.765L657.519,227.7q13.285,47.311,69.946,47.31h0ZM853.05,250.259a12.306,12.306,0,0,1-10.938-6.065q-3.9-6.064-3.9-22.972,0-30.176,14.989-30.176a12,12,0,0,1,9.349,4.625q3.973,4.626,3.974,15.012l29.6-1.592q-1.439-18.8-12.452-30.175t-31.529-11.373q-21.954,0-34.216,14.936t-12.263,39.273q0,24.565,12.944,38.515T852.6,274.218q17.487,0,29.485-10.16t14.042-29.189l-28.993-1.744q-1.515,17.135-14.08,17.134h0Zm110.6-81.124V207.2H939.423v-38.06H907.705v103.49h31.718V232.367h24.224v40.258h31.718V169.135H963.647Zm80.773,78.774V231h37.7V208.029h-37.7V193.018h46.63V169.135h-77.74v103.49h77.74V247.909h-46.63Zm59.19-78.774v103.49h31.72V169.135h-31.72Zm138.08,0h-25.81v30.63a150.361,150.361,0,0,0,2.42,27.143,145.614,145.614,0,0,0-10.9-19.867l-24.07-37.906h-29.98v103.49h25.74V222.51a72.441,72.441,0,0,0-2.5-16.983,173.048,173.048,0,0,0,10.99,21.373l28.3,45.725h25.81V169.135Zm49.13,78.774V231h37.7V208.029h-37.7V193.018h46.63V169.135h-77.74v103.49h77.74V247.909h-46.63Zm132.47-20.395q11.055-5.231,14.69-12.092a33.3,33.3,0,0,0,3.63-15.808q0-13.722-9.88-22.1t-27.74-8.378h-53.97v103.49h31.71V233.049h10.01l15.09,39.576h35.16Zm-41.56-36.392h14.61q12.2,0,12.19,9.932a8.357,8.357,0,0,1-3.63,7.354q-3.63,2.5-9.62,2.5h-13.55V191.122Z"/>
  <path id="Color_Fill_2" data-name="Color Fill 2" class="cls-2" d="M136.348,261.2q30.991,0,50.064-14.6t19.073-38.114q0-14.882-7.828-25.845a42.611,42.611,0,0,0-19.523-15.487q-11.7-4.524-39.514-10.407Q128.515,154.6,125,152.217a7.632,7.632,0,0,1-3.519-6.7q0-9.648,15.553-9.65,18.732,0,24.862,15.553l39.393-11.92q-15.214-38.031-62.552-38.031-31.221,0-47.851,14.536T74.249,152.458A42.391,42.391,0,0,0,85.825,182.1Q97.4,194.7,138.162,202.514q10.672,2.153,14.817,4.933a8.853,8.853,0,0,1,4.144,7.776q0,9.537-17.937,9.536-23.048,0-28.609-18.731l-44.161,7.947Q79.7,261.2,136.348,261.2h0Zm172.123-2.384-32.4-103.308H242.542L210.65,258.817h25.744l6.2-20.359h27.675l5.838,20.359h32.361Zm-52.127-72.881L264.7,215.9H247.988Zm97.594,74.47q20.661,0,33.376-9.731t12.715-25.409a28.872,28.872,0,0,0-5.218-17.23A28.4,28.4,0,0,0,381.8,197.711q-7.8-3.017-26.342-6.938-6.736-1.434-9.083-3.023a5.086,5.086,0,0,1-2.347-4.465q0-6.432,10.369-6.433,12.488,0,16.575,10.368l26.262-7.946q-10.143-25.354-41.7-25.354-20.814,0-31.9,9.691a30.924,30.924,0,0,0-11.088,24.3,28.259,28.259,0,0,0,7.717,19.759q7.718,8.4,34.892,13.612,7.115,1.434,9.878,3.288a5.9,5.9,0,0,1,2.762,5.185q0,6.357-11.958,6.357-15.364,0-19.072-12.488l-29.441,5.3q8.855,31.485,46.621,31.484h0Zm114.131-104.9V193.5H443.85V155.509H412.139V258.817H443.85V218.629h24.219v40.188H499.78V155.509H468.069ZM607.043,258.817l-32.4-103.308H541.114L509.222,258.817h25.744l6.2-20.359h27.675l5.838,20.359h32.361Zm-52.127-72.881,8.358,29.968H546.56ZM713.738,261.2q30.991,0,50.064-14.6t19.073-38.114q0-14.882-7.828-25.845a42.611,42.611,0,0,0-19.523-15.487q-11.7-4.524-39.514-10.407-10.105-2.151-13.625-4.534a7.632,7.632,0,0,1-3.519-6.7q0-9.648,15.553-9.65,18.732,0,24.862,15.553l39.393-11.92q-15.213-38.031-62.552-38.031-31.221,0-47.851,14.536t-16.632,36.451A42.391,42.391,0,0,0,663.215,182.1q11.576,12.606,52.337,20.417,10.673,2.153,14.817,4.933a8.853,8.853,0,0,1,4.144,7.776q0,9.537-17.937,9.536-23.048,0-28.608-18.731l-44.162,7.947Q657.088,261.2,713.738,261.2h0ZM839.3,236.49a12.307,12.307,0,0,1-10.936-6.054q-3.9-6.054-3.9-22.932,0-30.121,14.985-30.122A12,12,0,0,1,848.8,182q3.973,4.617,3.974,14.986l29.592-1.59q-1.438-18.768-12.45-30.122T838.389,153.92q-21.95,0-34.209,14.909t-12.261,39.2q0,24.522,12.942,38.448t33.982,13.925q17.483,0,29.479-10.141t14.039-29.138l-28.987-1.741q-1.515,17.1-14.077,17.1h0Zm110.574-80.981V193.5H925.652V155.509H893.94V258.817h31.712V218.629h24.219v40.188h31.711V155.509H949.871Zm80.749,78.635V217.267h37.7V194.335h-37.7V179.349h46.63v-23.84H999.519V258.817h77.731V234.144h-46.63Zm59.19-78.635V258.817h31.71V155.509h-31.71Zm138.05,0h-25.81v30.576a149.831,149.831,0,0,0,2.42,27.1,145.349,145.349,0,0,0-10.9-19.832l-24.07-37.839h-29.97V258.817h25.74V208.79a72.191,72.191,0,0,0-2.5-16.953,174.121,174.121,0,0,0,10.98,21.335l28.3,45.645h25.81V155.509Zm49.12,78.635V217.267h37.69V194.335h-37.69V179.349h46.62v-23.84h-77.73V258.817h77.73V234.144h-46.62Zm132.44-20.359q11.055-5.221,14.68-12.071a33.08,33.08,0,0,0,3.64-15.78q0-13.7-9.88-22.062t-27.74-8.363h-53.96V258.817h31.71V219.31h10l15.09,39.507h35.16Zm-41.55-36.328h14.61q12.18,0,12.18,9.915a8.34,8.34,0,0,1-3.63,7.341q-3.63,2.5-9.61,2.5h-13.55V177.457Z"/>
</svg>
