<svg xmlns="http://www.w3.org/2000/svg" width="872.1" height="250.002" viewBox="0 0 1500 430">
  <defs>
    <style>
      .cls-1, .cls-2 {
        fill-rule: evenodd;
      }

      .cls-1 {
        opacity: 0.5;
      }

      .cls-2 {
        fill: #fff;
      }
    </style>
  </defs>
  <path id="Color_Fill_1_copy" data-name="Color Fill 1 copy" class="cls-1" d="M227.087,282.737L172.229,107.886H115.464l-54,174.851h43.587l10.5-34.458h46.857l9.884,34.458h54.79ZM138.831,159.385l14.151,50.722h-28.3Zm135.08,94.744V166.17H238.117V282.737H319.87V254.129H273.911Zm93.541,0.769V235.854h42.542V209.979H367.452V193.07h52.622v-26.9H332.342V282.737h87.732V254.9H367.452ZM501.918,166.17L483.14,197.54l-18.092-31.37H423.3l36.025,56.377-37.562,60.19h32.756l21.736-36.709,21.531,36.709h41.651l-39.275-62.5,33.893-54.07H501.918ZM656.875,285.427q34.982,0,56.509-16.47t21.528-43.006q0-16.792-8.836-29.162a48.081,48.081,0,0,0-22.036-17.475q-13.2-5.1-44.6-11.743-11.406-2.425-15.379-5.116a8.609,8.609,0,0,1-3.972-7.558q0-10.886,17.555-10.888,21.143,0,28.062,17.549l44.464-13.45Q713,105.2,659.566,105.2q-35.241,0-54.011,16.4t-18.772,41.129a47.823,47.823,0,0,0,13.066,33.443q13.065,14.225,59.074,23.037,12.046,2.43,16.724,5.567a9.986,9.986,0,0,1,4.677,8.774q0,10.761-20.246,10.76-26.013,0-32.291-21.136l-49.846,8.967q14.993,53.29,78.934,53.288h0ZM798.6,257.545a13.892,13.892,0,0,1-12.344-6.832q-4.4-6.831-4.4-25.875,0-33.988,16.914-33.988,6.064,0,10.55,5.209t4.485,16.908l33.4-1.793Q845.58,190,833.151,177.186t-35.58-12.81q-24.774,0-38.612,16.824T745.12,225.435q0,27.669,14.608,43.382t38.356,15.713q19.734,0,33.273-11.443T847.2,240.209l-32.718-1.964q-1.71,19.3-15.889,19.3h0ZM923.4,166.17v42.869H896.067V166.17H860.274V282.737h35.793V237.391H923.4v45.346H959.2V166.17H923.4ZM1014.55,254.9V235.854h42.55V209.979h-42.55V193.07h52.63v-26.9H979.443V282.737h87.737V254.9h-52.63Zm66.81-88.728V282.737h35.79V166.17h-35.79Zm155.81,0h-29.13v34.5a168.87,168.87,0,0,0,2.74,30.572,164.941,164.941,0,0,0-12.3-22.376l-27.17-42.7h-33.83V282.737h29.05V226.289a81.086,81.086,0,0,0-2.82-19.129,195.242,195.242,0,0,0,12.4,24.073l31.93,51.5h29.13V166.17Zm55.44,88.728V235.854h42.55V209.979h-42.55V193.07h52.63v-26.9H1257.5V282.737h87.74V254.9h-52.63Zm149.5-22.972q12.465-5.893,16.57-13.621a37.346,37.346,0,0,0,4.1-17.806q0-15.454-11.15-24.893t-31.3-9.436h-60.91V282.737h35.79V238.16h11.29l17.03,44.577h39.68Zm-46.9-40.991h16.49q13.755,0,13.75,11.187a9.416,9.416,0,0,1-4.1,8.284q-4.1,2.817-10.85,2.818h-15.29V190.935Z"/>
  <path id="Color_Fill_1" data-name="Color Fill 1" class="cls-2" d="M209.14,265.017L154.267,90.06H97.486L43.475,265.017h43.6l10.5-34.479h46.87l9.887,34.479h54.8ZM120.86,141.589l14.155,50.753H106.709Zm135.117,94.8V148.379h-35.8V265.017h81.775V236.391H255.977Zm93.566,0.769V218.105H392.1V192.214H349.543V175.3H402.18V148.379H314.424V265.017H402.18V237.16H349.543Zm134.5-88.781-18.783,31.389-18.1-31.389H405.406L441.44,204.79l-37.572,60.227h32.766l21.741-36.731,21.537,36.731h41.662l-39.285-62.536,33.9-54.1H484.046Zm155,119.329q34.992,0,56.525-16.48T717.1,208.2q0-16.8-8.838-29.18a48.114,48.114,0,0,0-22.042-17.486q-13.206-5.106-44.612-11.75-11.409-2.427-15.383-5.118a8.616,8.616,0,0,1-3.973-7.563q0-10.893,17.559-10.895,21.15,0,28.071,17.56l44.476-13.458q-17.178-42.938-70.624-42.938-35.25,0-54.025,16.412t-18.778,41.154A47.859,47.859,0,0,0,582,178.4q13.068,14.233,59.09,23.052,12.049,2.43,16.729,5.569a10,10,0,0,1,4.678,8.78q0,10.767-20.251,10.767-26.022,0-32.3-21.149l-49.86,8.972q15,53.322,78.955,53.32h0Zm141.761-27.9a13.9,13.9,0,0,1-12.348-6.836q-4.4-6.836-4.4-25.891,0-34.008,16.919-34.009,6.066,0,10.553,5.213t4.486,16.919l33.41-1.8Q827.8,172.219,815.37,159.4t-35.59-12.817q-24.781,0-38.623,16.834T727.314,207.68q0,27.685,14.612,43.409t38.367,15.722q19.739,0,33.282-11.45t15.851-32.9L796.7,220.5q-1.71,19.311-15.893,19.311h0Zm124.841-91.43v42.9H878.3v-42.9H842.5V265.017h35.8V219.643h27.344v45.374h35.8V148.379h-35.8Zm91.174,88.781V218.105h42.549V192.214H996.821V175.3h52.639V148.379H961.7V265.017h87.758V237.16H996.821Zm66.819-88.781V265.017h35.81V148.379h-35.81Zm155.86,0h-29.14V182.9a169.079,169.079,0,0,0,2.74,30.591,165.123,165.123,0,0,0-12.3-22.391l-27.18-42.721h-33.84V265.017h29.06V208.535a81.181,81.181,0,0,0-2.82-19.141,195.463,195.463,0,0,0,12.4,24.088l31.94,51.535h29.14V148.379Zm55.46,88.781V218.105h42.55V192.214h-42.55V175.3h52.64V148.379h-87.76V265.017h87.76V237.16h-52.64Zm149.53-22.986q12.48-5.9,16.58-13.629a37.383,37.383,0,0,0,4.1-17.816q0-15.465-11.15-24.908t-31.31-9.442h-60.93V265.017h35.8v-44.6h11.29l17.04,44.6h39.69Zm-46.91-41.015h16.49q13.77,0,13.76,11.194a9.422,9.422,0,0,1-4.1,8.288q-4.1,2.82-10.85,2.82h-15.3v-22.3Z"/>
</svg>
